<svg xmlns="http://www.w3.org/2000/svg" viewBox="0 0 199 301"><defs><style>.cls-1{fill:#e20713;}</style></defs><g id="Capa_3" data-name="Capa 3"><path class="cls-1" d="M197.85,30.69a1.62,1.62,0,0,0-.51-2.92,17.56,17.56,0,0,0-3.67-.6c-5.55,0-15.38-.29-19.28-2.89s-7.08-13.56-8.48-19.44c-.25-1.09-.45-2.41-.59-3.51a.4.4,0,0,0-.79-.07,24,24,0,0,1-1.37,3.68c-3.39,6.87-10.44,20.78-13.9,24.92a120.42,120.42,0,0,1-9,9.31,17.56,17.56,0,0,1-2.82,2.11,2.43,2.43,0,0,0-.39,3.86,35.28,35.28,0,0,1,5.78,6.93c5.58,8.9,12.58,23.37,12,39.21-.58,16.43-8.94,28.79-15,35.68a27.06,27.06,0,0,1-5.38,4.57,2.13,2.13,0,0,0-.06,3.49,28.87,28.87,0,0,1,4.39,5.63c6.33,10,15.06,28.4,6.78,43.69-12.1,22.34-40.95,29.09-46.07,29S72.21,208.38,56.2,189c-14.26-17.27-.68-44.22,5.11-54a14.52,14.52,0,0,1,2.09-2.67,1.13,1.13,0,0,0-.21-1.77,13.79,13.79,0,0,1-2.47-1.9c-5.83-5.71-18.26-20.39-17.55-41.1a65.66,65.66,0,0,1,8-28.69C53.42,54.6,56,52,58.06,49.41a34.52,34.52,0,0,1,3.31-3.67,3.16,3.16,0,0,0-.49-4.93A33.44,33.44,0,0,1,56,37.09c-3.58-3.36-7.71-7.73-10-11.88-2.72-4.9-6.59-12.36-9.32-17.69A59.08,59.08,0,0,1,34,1.21a.64.64,0,0,0-1.24.16,44.13,44.13,0,0,1-1.15,7.14c-1.48,5.41-3.87,12.21-7,14.84-4,3.34-14.73,3.8-20.46,3.8a10.74,10.74,0,0,0-2.58.43A1.58,1.58,0,0,0,1,30.35c.44.36,7.38,8.14,10.26,13.59,5.11,9.67,10.35,22.73,11.49,37.11,1.05,13.28,1.26,27-.93,39.08-2.71,14.92-8.22,27.83-10.24,39.09-2.92,16.29-1.08,27.66-.3,31.31a.91.91,0,0,0,1.22.66,2.36,2.36,0,0,1,2.8.6c1.86,1.86,2.28,7.91,3.72,12.1a8.63,8.63,0,0,0,.49,1.15.93.93,0,0,0,1.75-.23c.82-4,2.83-13,4.28-13,.72,0,1.54,2.12,1.86,5.58.5,5.49.51,13.54,2.79,15.82,3.72,3.73,14.28,10.91,32.57,27a116.54,116.54,0,0,1,35.92,60.44.49.49,0,0,0,1,0c2.42-7.71,12.57-37.43,29.21-53,4.6-4.32,9.35-9.34,14.89-14,12.39-10.35,25.41-19.77,26-22.34.93-3.72.93-18.61,2.79-19.54,1.42-.71,3.92,8.29,5,12.63a.61.61,0,0,0,1.18,0c1.14-4,3.57-12,5-12.64a4.16,4.16,0,0,1,2.58-.35,1.08,1.08,0,0,0,1.29-.95,131.31,131.31,0,0,0-1.08-32.2c-1.71-10.75-6.86-25.82-9.3-37.23s-2.23-19.35-1.86-27.92a127.69,127.69,0,0,1,9.41-44c2.89-6.92,6.79-11,9.2-14.63A13.5,13.5,0,0,1,197.85,30.69Z"/></g></svg>