<svg xmlns="http://www.w3.org/2000/svg" viewBox="0 0 199 302"><defs><style>.cls-1{fill:#e20713;}.cls-2{fill:#fff;}</style></defs><g id="logo_txt" data-name="logo txt"><path class="cls-1" d="M197.87,30.66a1.61,1.61,0,0,0-.49-2.92,17.56,17.56,0,0,0-3.67-.6c-5.55,0-15.38-.29-19.29-2.89S167.34,10.69,166,4.8a34.57,34.57,0,0,1-.6-3.5.4.4,0,0,0-.79-.06A23.72,23.72,0,0,1,163.2,4.9c-3.4,6.88-10.45,20.79-13.91,24.93a118.67,118.67,0,0,1-9,9.32,18.1,18.1,0,0,1-2.82,2.1,2.43,2.43,0,0,0-.39,3.86A34.94,34.94,0,0,1,142.86,52c5.58,8.91,12.58,23.38,12,39.22-.59,16.43-8.94,28.79-15,35.68a27.06,27.06,0,0,1-5.38,4.57,2.13,2.13,0,0,0-.06,3.49,28.87,28.87,0,0,1,4.39,5.63c6.33,10.05,15.06,28.4,6.78,43.7-12.1,22.34-40.95,29.09-46.07,29S72.24,208.37,56.22,189c-14.26-17.26-.67-44.22,5.12-54a13.78,13.78,0,0,1,2.09-2.67,1.13,1.13,0,0,0-.22-1.77,14.15,14.15,0,0,1-2.47-1.9c-5.82-5.71-18.26-20.39-17.55-41.1a65.84,65.84,0,0,1,8-28.7c2.28-4.27,4.89-6.83,6.92-9.46A36.92,36.92,0,0,1,61.4,45.7a3.15,3.15,0,0,0-.49-4.92A32.92,32.92,0,0,1,56,37.06c-3.58-3.36-7.71-7.73-10-11.88-2.72-4.9-6.58-12.36-9.32-17.7A57.4,57.4,0,0,1,34,1.17a.64.64,0,0,0-1.24.17,44.08,44.08,0,0,1-1.14,7.14c-1.48,5.41-3.87,12.21-7,14.84-4,3.34-14.73,3.8-20.46,3.8a10.74,10.74,0,0,0-2.58.43A1.58,1.58,0,0,0,1,30.32c.44.36,7.38,8.14,10.26,13.59C16.34,53.58,21.58,66.64,22.72,81c1.05,13.28,1.26,27-.93,39.09C19.08,135,13.57,147.94,11.55,159.2c-2.92,16.3-1.08,27.68-.3,31.32a.89.89,0,0,0,1.22.65,2.38,2.38,0,0,1,2.8.6c1.86,1.87,2.28,7.91,3.72,12.1a9.66,9.66,0,0,0,.49,1.16.94.94,0,0,0,1.75-.23c.82-4,2.83-13,4.28-13,.72,0,1.55,2.12,1.86,5.59.5,5.48.51,13.54,2.79,15.82,3.73,3.72,14.28,10.91,32.58,27a116.54,116.54,0,0,1,35.92,60.44.49.49,0,0,0,.94.05c2.43-7.72,12.58-37.44,29.22-53,4.6-4.32,9.35-9.34,14.89-14,12.39-10.35,25.41-19.77,26.06-22.34.93-3.72.93-18.61,2.79-19.55,1.42-.7,3.91,8.3,5,12.63a.62.62,0,0,0,1.19,0c1.14-4,3.57-11.95,5-12.65a4.15,4.15,0,0,1,2.58-.34,1.1,1.1,0,0,0,1.29-1,131.92,131.92,0,0,0-1.08-32.21c-1.72-10.75-6.86-25.82-9.31-37.23s-2.22-19.35-1.86-27.92a127.79,127.79,0,0,1,9.42-44c2.89-6.93,6.79-11,9.19-14.64A13.59,13.59,0,0,1,197.87,30.66Z"/><polygon class="cls-2" points="146.5 131.28 146.5 138.72 156.74 138.72 156.74 168.51 164.18 168.51 164.18 138.72 198.62 138.72 198.62 131.28 146.5 131.28"/><rect class="cls-2" x="174.42" y="146.17" width="20.48" height="7.45"/><rect class="cls-2" x="174.42" y="161.39" width="24.2" height="7.12"/><polygon class="cls-2" points="136.8 131.28 118.58 168.51 126.42 168.51 138.12 146.17 148.39 168.51 156.74 168.51 139.26 131.28 136.8 131.28"/><polygon class="cls-2" points="89.13 146.17 99.97 155.93 110.2 146.17 110.2 168.51 118.13 168.51 118.13 131.28 115.25 131.28 99.97 145.24 84.5 131.28 81.8 131.28 81.8 168.51 89.13 168.51 89.13 146.17"/><rect class="cls-2" x="72.97" y="131.28" width="7.57" height="37.23"/><polygon class="cls-2" points="54.18 168.51 61.39 168.51 61.39 138.72 71.65 138.72 71.65 131.28 43.19 131.28 43.19 138.72 54.18 138.72 54.18 168.51"/><polygon class="cls-2" points="52.74 161.39 52.74 161.06 38.75 161.06 38.75 131.28 31.09 131.28 31.09 168.51 52.74 168.51 52.74 161.39"/><path class="cls-2" d="M21.79,156.11A6.67,6.67,0,0,1,14.91,162c-6.15,0-7.08-5.88-7.08-5.88V131.28H.38v25.13s.09,12.1,14.47,12.1,14.38-12.1,14.38-12.1l.09-25.13H21.79Z"/><path class="cls-2" d="M156.74,176.88a10.44,10.44,0,0,0-6.84-7.08,7.3,7.3,0,0,0-2.32-.36H135.33l2.33,4.65h9.78a4.66,4.66,0,1,1,0,9.31h-3.85a.46.46,0,0,0-.4.7l8,13.74h5.53l-5.59-9.79S158.6,183.4,156.74,176.88Z"/><polygon class="cls-2" points="120.44 174.09 134.4 174.09 134.4 169.44 115.79 169.44 120.44 174.09"/><rect class="cls-2" x="115.79" y="181.24" width="18.61" height="4.95"/><polygon class="cls-2" points="115.8 197.85 134.4 197.85 134.4 193.26 120.39 193.26 115.8 197.85"/><polygon class="cls-2" points="85.54 169.35 85.54 176.1 99.5 190.51 109.27 181.54 109.27 197.85 113.82 197.84 113.82 169.44 99.5 183.31 85.54 169.35"/><polygon class="cls-2" points="87.87 193.26 90 197.85 95.31 197.85 93.15 193.26 87.87 193.26"/><polygon class="cls-2" points="80.99 169.35 66.94 197.85 72.12 197.85 81.35 180.61 85.07 188.05 90.66 188.05 80.99 169.35"/><polygon class="cls-2" points="58.08 186.19 65.14 186.19 69.25 181.54 58.08 181.54 58.08 186.19"/><path class="cls-2" d="M69.25,191.77l-4.65-1.86a7.64,7.64,0,0,1-6.52,2.8c-3.78-.19-10-3-9.78-9.11a9.59,9.59,0,0,1,8.85-9.51,11,11,0,0,1,7.45,2.79l2.79-2.79s-1.86-4.83-9.31-4.74-14.89,4.74-14.89,14.05,7.45,14,14.89,14.45S69.25,191.77,69.25,191.77Z"/></g></svg>